<svg width="365" height="61" viewBox="0 0 365 61" fill="none" xmlns="http://www.w3.org/2000/svg">
<rect x="0.927734" y="0.641602" width="363.718" height="59.6497" rx="18.9133" fill="#292929"/>
<g clip-path="url(#clip0_68_3645)">
<path d="M80.2088 30.8997C80.2088 30.0457 80.1395 29.4226 79.9895 28.7764H70.2383V32.6306H75.962C75.8467 33.5885 75.2235 35.031 73.8387 36.0003L73.8193 36.1293L76.9024 38.5178L77.1161 38.5391C79.0778 36.7273 80.2088 34.0616 80.2088 30.8997Z" fill="#4285F4"/>
<path d="M70.2371 41.0554C73.0412 41.0554 75.3954 40.1322 77.1149 38.5397L73.8375 36.0009C72.9605 36.6125 71.7834 37.0395 70.2371 37.0395C67.4906 37.0395 65.1596 35.2278 64.3286 32.7236L64.2068 32.734L61.0009 35.2151L60.959 35.3316C62.6669 38.7243 66.175 41.0554 70.2371 41.0554Z" fill="#34A853"/>
<path d="M64.327 32.7228C64.1078 32.0766 63.9809 31.3842 63.9809 30.6687C63.9809 29.9532 64.1078 29.2609 64.3155 28.6146L64.3097 28.477L61.0636 25.9561L60.9574 26.0066C60.2535 27.4145 59.8496 28.9955 59.8496 30.6687C59.8496 32.342 60.2535 33.9229 60.9574 35.3308L64.327 32.7228Z" fill="#FBBC05"/>
<path d="M70.2371 24.2991C72.1873 24.2991 73.5028 25.1415 74.2529 25.8455L77.1841 22.9835C75.3839 21.3103 73.0412 20.2832 70.2371 20.2832C66.175 20.2832 62.6669 22.6142 60.959 26.0069L64.3171 28.615C65.1596 26.1108 67.4906 24.2991 70.2371 24.2991Z" fill="#EB4335"/>
</g>
<path d="M100.236 38.4741C99.2026 38.4741 98.2314 38.2704 97.3221 37.8631C96.4129 37.4484 95.6127 36.8774 94.9216 36.15C94.2378 35.4225 93.6995 34.5824 93.3067 33.6294C92.9212 32.6692 92.7284 31.6435 92.7284 30.5524C92.7284 29.4539 92.9212 28.4282 93.3067 27.4753C93.6995 26.5151 94.2378 25.6749 94.9216 24.9547C95.6127 24.2273 96.4129 23.6599 97.3221 23.2525C98.2314 22.8379 99.2026 22.6306 100.236 22.6306C101.472 22.6306 102.611 22.9179 103.651 23.4926C104.691 24.06 105.553 24.8202 106.237 25.7731L103.858 27.0498C103.429 26.5187 102.894 26.0932 102.254 25.7731C101.621 25.453 100.948 25.293 100.236 25.293C99.5663 25.293 98.9371 25.4312 98.3478 25.7076C97.7586 25.9768 97.2421 26.3551 96.7984 26.8424C96.3547 27.3225 96.0091 27.8827 95.7618 28.5228C95.5145 29.1557 95.3908 29.8322 95.3908 30.5524C95.3908 31.2798 95.5145 31.9599 95.7618 32.5928C96.0164 33.2257 96.3656 33.7858 96.8093 34.2732C97.253 34.7533 97.7659 35.1316 98.3478 35.408C98.9371 35.6771 99.5663 35.8117 100.236 35.8117C100.963 35.8117 101.639 35.6517 102.265 35.3316C102.898 35.0043 103.429 34.5751 103.858 34.044L106.237 35.3316C105.553 36.2773 104.691 37.0374 103.651 37.6121C102.611 38.1868 101.472 38.4741 100.236 38.4741ZM112.522 38.4741C111.518 38.4741 110.601 38.2159 109.772 37.6994C108.95 37.1829 108.292 36.4919 107.797 35.6262C107.31 34.7533 107.066 33.7894 107.066 32.7347C107.066 31.9345 107.208 31.1889 107.492 30.4978C107.775 29.7995 108.164 29.1884 108.659 28.6647C109.161 28.1336 109.743 27.719 110.405 27.4208C111.067 27.1225 111.772 26.9734 112.522 26.9734C113.526 26.9734 114.439 27.2316 115.261 27.7481C116.09 28.2646 116.748 28.9593 117.236 29.8322C117.73 30.7051 117.977 31.6726 117.977 32.7347C117.977 33.5276 117.836 34.2696 117.552 34.9606C117.268 35.6517 116.875 36.2627 116.374 36.7938C115.879 37.3175 115.301 37.7285 114.639 38.0268C113.984 38.325 113.278 38.4741 112.522 38.4741ZM112.522 35.8117C113.053 35.8117 113.529 35.6699 113.951 35.3862C114.373 35.1025 114.704 34.7278 114.944 34.2623C115.191 33.7967 115.315 33.2875 115.315 32.7347C115.315 32.1673 115.188 31.6508 114.933 31.1852C114.686 30.7124 114.348 30.3378 113.918 30.0613C113.496 29.7776 113.031 29.6358 112.522 29.6358C111.998 29.6358 111.525 29.7776 111.103 30.0613C110.681 30.345 110.347 30.7233 110.099 31.1961C109.852 31.669 109.728 32.1818 109.728 32.7347C109.728 33.3093 109.856 33.8295 110.11 34.295C110.365 34.7606 110.703 35.1316 111.125 35.408C111.554 35.6771 112.02 35.8117 112.522 35.8117ZM129.671 31.2943V38.1904H127.009V31.9927C127.009 31.5635 126.904 31.1743 126.693 30.8251C126.482 30.4687 126.198 30.1886 125.841 29.985C125.492 29.774 125.103 29.6685 124.674 29.6685C124.245 29.6685 123.852 29.774 123.495 29.985C123.146 30.1886 122.866 30.4687 122.655 30.8251C122.452 31.1743 122.35 31.5635 122.35 31.9927V38.1904H119.687L119.676 27.2789H122.339L122.35 28.25C122.721 27.8572 123.165 27.5481 123.681 27.3225C124.197 27.0898 124.754 26.9734 125.35 26.9734C126.143 26.9734 126.867 27.1698 127.522 27.5626C128.177 27.9481 128.697 28.4683 129.082 29.1229C129.475 29.7704 129.671 30.4942 129.671 31.2943ZM137.694 29.9413H135.577V38.1904H132.915V29.9413H131.3V27.2789H132.915V23.8527H135.577V27.2789H137.694V29.9413ZM139.496 27.2789H142.159V38.1904H139.496V27.2789ZM140.849 25.8713C140.456 25.8713 140.125 25.744 139.856 25.4894C139.587 25.2275 139.453 24.9002 139.453 24.5074C139.453 24.1218 139.587 23.7981 139.856 23.5362C140.125 23.2744 140.453 23.1434 140.838 23.1434C141.224 23.1434 141.548 23.2744 141.809 23.5362C142.079 23.7981 142.213 24.1218 142.213 24.5074C142.213 24.9002 142.082 25.2275 141.82 25.4894C141.559 25.744 141.235 25.8713 140.849 25.8713ZM154.691 31.2943V38.1904H152.029V31.9927C152.029 31.5635 151.923 31.1743 151.712 30.8251C151.501 30.4687 151.218 30.1886 150.861 29.985C150.512 29.774 150.123 29.6685 149.694 29.6685C149.265 29.6685 148.872 29.774 148.515 29.985C148.166 30.1886 147.886 30.4687 147.675 30.8251C147.471 31.1743 147.37 31.5635 147.37 31.9927V38.1904H144.707L144.696 27.2789H147.359L147.37 28.25C147.741 27.8572 148.184 27.5481 148.701 27.3225C149.217 27.0898 149.774 26.9734 150.37 26.9734C151.163 26.9734 151.887 27.1698 152.542 27.5626C153.196 27.9481 153.716 28.4683 154.102 29.1229C154.495 29.7704 154.691 30.4942 154.691 31.2943ZM156.429 34.1532V27.2789H159.091V33.4548C159.091 33.884 159.197 34.2768 159.408 34.6333C159.619 34.9824 159.899 35.2625 160.248 35.4735C160.604 35.6771 160.993 35.779 161.415 35.779C161.852 35.779 162.245 35.6771 162.594 35.4735C162.943 35.2625 163.223 34.9824 163.434 34.6333C163.645 34.2768 163.75 33.884 163.75 33.4548V27.2789H166.413L166.424 38.1904H163.761L163.75 37.1975C163.372 37.5903 162.925 37.9031 162.408 38.1359C161.892 38.3614 161.339 38.4741 160.75 38.4741C159.957 38.4741 159.233 38.2814 158.578 37.8958C157.924 37.503 157.4 36.9829 157.007 36.3355C156.621 35.6808 156.429 34.9533 156.429 34.1532ZM173.238 38.4741C172.235 38.4741 171.318 38.2159 170.489 37.6994C169.667 37.1829 169.008 36.4882 168.514 35.6153C168.026 34.7424 167.783 33.7785 167.783 32.7238C167.783 31.9308 167.925 31.1889 168.208 30.4978C168.492 29.7995 168.881 29.1884 169.376 28.6647C169.878 28.1336 170.46 27.719 171.122 27.4208C171.784 27.1225 172.489 26.9734 173.238 26.9734C174.09 26.9734 174.868 27.1552 175.573 27.519C176.286 27.8754 176.89 28.3664 177.385 28.992C177.879 29.6176 178.24 30.3305 178.465 31.1307C178.691 31.9308 178.741 32.7674 178.618 33.6403H170.641C170.743 34.0477 170.911 34.415 171.143 34.7424C171.376 35.0625 171.671 35.3207 172.027 35.5171C172.384 35.7062 172.787 35.8044 173.238 35.8117C173.704 35.819 174.126 35.7099 174.504 35.4844C174.89 35.2516 175.21 34.9388 175.464 34.546L178.181 35.1788C177.738 36.1463 177.076 36.9392 176.195 37.5576C175.315 38.1686 174.33 38.4741 173.238 38.4741ZM170.554 31.6435H175.923C175.843 31.2071 175.672 30.8142 175.41 30.4651C175.155 30.1086 174.839 29.8249 174.461 29.614C174.082 29.403 173.675 29.2975 173.238 29.2975C172.802 29.2975 172.398 29.403 172.027 29.614C171.656 29.8176 171.34 30.0977 171.078 30.4542C170.823 30.8033 170.649 31.1998 170.554 31.6435ZM191.522 38.1904H188.881L185.237 27.2789H187.845L190.213 34.3387L192.569 27.2789H195.199L197.556 34.3387L199.924 27.2789H202.532L198.887 38.1904H196.247L193.879 31.0979L191.522 38.1904ZM204.156 27.2789H206.818V38.1904H204.156V27.2789ZM205.509 25.8713C205.116 25.8713 204.785 25.744 204.516 25.4894C204.246 25.2275 204.112 24.9002 204.112 24.5074C204.112 24.1218 204.246 23.7981 204.516 23.5362C204.785 23.2744 205.112 23.1434 205.498 23.1434C205.883 23.1434 206.207 23.2744 206.469 23.5362C206.738 23.7981 206.873 24.1218 206.873 24.5074C206.873 24.9002 206.742 25.2275 206.48 25.4894C206.218 25.744 205.894 25.8713 205.509 25.8713ZM215.289 29.9413H213.173V38.1904H210.51V29.9413H208.895V27.2789H210.51V23.8527H213.173V27.2789H215.289V29.9413ZM227.257 31.2943V38.1904H224.595V31.9927C224.595 31.5635 224.489 31.1743 224.278 30.8251C224.067 30.4687 223.784 30.1886 223.427 29.985C223.078 29.774 222.689 29.6685 222.26 29.6685C221.83 29.6685 221.438 29.774 221.081 29.985C220.732 30.1886 220.452 30.4687 220.241 30.8251C220.037 31.1743 219.936 31.5635 219.936 31.9927V38.1904H217.273L217.262 21.8231H219.925L219.936 28.25C220.306 27.8572 220.75 27.5481 221.267 27.3225C221.783 27.0898 222.34 26.9734 222.936 26.9734C223.729 26.9734 224.453 27.1698 225.108 27.5626C225.762 27.9481 226.282 28.4683 226.668 29.1229C227.061 29.7704 227.257 30.4942 227.257 31.2943ZM241.744 38.4741C240.682 38.4741 239.693 38.2668 238.776 37.8522C237.867 37.4375 237.074 36.8665 236.398 36.1391C235.721 35.4044 235.19 34.5605 234.805 33.6076C234.426 32.6474 234.237 31.6217 234.237 30.5305C234.237 29.3812 234.441 28.3264 234.848 27.3662C235.263 26.406 235.827 25.5731 236.54 24.8675C237.252 24.1618 238.06 23.6163 238.962 23.2307C239.871 22.8452 240.817 22.6524 241.799 22.6524C242.897 22.6524 243.963 22.9107 244.996 23.4271C246.036 23.9363 246.953 24.7256 247.746 25.7949L245.367 27.0716C244.88 26.4751 244.32 26.0313 243.687 25.7404C243.061 25.4421 242.421 25.293 241.766 25.293C241.126 25.293 240.511 25.4239 239.922 25.6858C239.34 25.9477 238.82 26.3187 238.362 26.7988C237.911 27.2716 237.554 27.8318 237.292 28.4792C237.031 29.1193 236.9 29.8213 236.9 30.5851C236.9 31.3053 237.027 31.9854 237.282 32.6255C237.536 33.2584 237.885 33.8149 238.329 34.295C238.78 34.7678 239.3 35.1388 239.889 35.408C240.479 35.6771 241.112 35.8117 241.788 35.8117C242.239 35.8117 242.679 35.7426 243.108 35.6044C243.545 35.4589 243.952 35.2516 244.33 34.9824C244.716 34.7133 245.058 34.3859 245.356 34.0004C245.662 33.6149 245.916 33.1784 246.12 32.691H243.337V30.3669H249.252C249.281 31.4798 249.106 32.5237 248.728 33.4985C248.35 34.4732 247.815 35.3352 247.124 36.0845C246.433 36.8338 245.629 37.4193 244.712 37.8413C243.796 38.2632 242.806 38.4741 241.744 38.4741ZM255.906 38.4741C254.902 38.4741 253.986 38.2159 253.156 37.6994C252.334 37.1829 251.676 36.4919 251.181 35.6262C250.694 34.7533 250.45 33.7894 250.45 32.7347C250.45 31.9345 250.592 31.1889 250.876 30.4978C251.16 29.7995 251.549 29.1884 252.043 28.6647C252.545 28.1336 253.127 27.719 253.789 27.4208C254.451 27.1225 255.157 26.9734 255.906 26.9734C256.91 26.9734 257.823 27.2316 258.645 27.7481C259.474 28.2646 260.132 28.9593 260.62 29.8322C261.114 30.7051 261.362 31.6726 261.362 32.7347C261.362 33.5276 261.22 34.2696 260.936 34.9606C260.653 35.6517 260.26 36.2627 259.758 36.7938C259.263 37.3175 258.685 37.7285 258.023 38.0268C257.368 38.325 256.663 38.4741 255.906 38.4741ZM255.906 35.8117C256.437 35.8117 256.914 35.6699 257.335 35.3862C257.757 35.1025 258.088 34.7278 258.328 34.2623C258.576 33.7967 258.699 33.2875 258.699 32.7347C258.699 32.1673 258.572 31.6508 258.317 31.1852C258.07 30.7124 257.732 30.3378 257.303 30.0613C256.881 29.7776 256.415 29.6358 255.906 29.6358C255.382 29.6358 254.909 29.7776 254.488 30.0613C254.066 30.345 253.731 30.7233 253.484 31.1961C253.236 31.669 253.113 32.1818 253.113 32.7347C253.113 33.3093 253.24 33.8295 253.495 34.295C253.749 34.7606 254.087 35.1316 254.509 35.408C254.939 35.6771 255.404 35.8117 255.906 35.8117ZM267.904 38.4741C266.901 38.4741 265.984 38.2159 265.155 37.6994C264.333 37.1829 263.674 36.4919 263.18 35.6262C262.692 34.7533 262.449 33.7894 262.449 32.7347C262.449 31.9345 262.591 31.1889 262.874 30.4978C263.158 29.7995 263.547 29.1884 264.042 28.6647C264.544 28.1336 265.126 27.719 265.788 27.4208C266.45 27.1225 267.155 26.9734 267.904 26.9734C268.908 26.9734 269.821 27.2316 270.643 27.7481C271.473 28.2646 272.131 28.9593 272.618 29.8322C273.113 30.7051 273.36 31.6726 273.36 32.7347C273.36 33.5276 273.218 34.2696 272.935 34.9606C272.651 35.6517 272.258 36.2627 271.756 36.7938C271.262 37.3175 270.683 37.7285 270.021 38.0268C269.367 38.325 268.661 38.4741 267.904 38.4741ZM267.904 35.8117C268.435 35.8117 268.912 35.6699 269.334 35.3862C269.756 35.1025 270.087 34.7278 270.327 34.2623C270.574 33.7967 270.698 33.2875 270.698 32.7347C270.698 32.1673 270.571 31.6508 270.316 31.1852C270.069 30.7124 269.73 30.3378 269.301 30.0613C268.879 29.7776 268.414 29.6358 267.904 29.6358C267.381 29.6358 266.908 29.7776 266.486 30.0613C266.064 30.345 265.729 30.7233 265.482 31.1961C265.235 31.669 265.111 32.1818 265.111 32.7347C265.111 33.3093 265.238 33.8295 265.493 34.295C265.748 34.7606 266.086 35.1316 266.508 35.408C266.937 35.6771 267.403 35.8117 267.904 35.8117ZM283.198 27.2789H285.861V38.3977C285.861 39.1834 285.701 39.8963 285.38 40.5364C285.06 41.1838 284.624 41.7367 284.071 42.195C283.518 42.6605 282.885 43.017 282.172 43.2643C281.46 43.5189 280.71 43.6462 279.925 43.6462C279.161 43.6462 278.426 43.4898 277.721 43.177C277.015 42.8642 276.389 42.435 275.844 41.8894C275.305 41.3511 274.894 40.7365 274.611 40.0454L277.044 38.9433C277.19 39.3434 277.408 39.6926 277.699 39.9908C277.997 40.2964 278.339 40.5328 278.724 40.7001C279.11 40.8747 279.51 40.962 279.925 40.962C280.347 40.962 280.75 40.9038 281.136 40.7874C281.529 40.671 281.881 40.5 282.194 40.2745C282.507 40.0563 282.751 39.7872 282.925 39.4671C283.107 39.1543 283.198 38.7978 283.198 38.3977V36.8592C282.856 37.3393 282.427 37.7285 281.911 38.0268C281.394 38.325 280.798 38.4741 280.121 38.4741C279.335 38.4741 278.601 38.325 277.917 38.0268C277.233 37.7285 276.629 37.3175 276.106 36.7938C275.589 36.2627 275.182 35.6517 274.884 34.9606C274.593 34.2696 274.447 33.5276 274.447 32.7347C274.447 31.9418 274.593 31.1998 274.884 30.5087C275.182 29.8176 275.589 29.2102 276.106 28.6865C276.629 28.1555 277.233 27.7408 277.917 27.4426C278.601 27.1443 279.335 26.9952 280.121 26.9952C280.798 26.9952 281.394 27.1443 281.911 27.4426C282.427 27.7335 282.856 28.1191 283.198 28.5992V27.2789ZM280.154 35.9099C280.714 35.9099 281.209 35.7681 281.638 35.4844C282.074 35.1934 282.416 34.8079 282.663 34.3277C282.911 33.8404 283.034 33.3093 283.034 32.7347C283.034 32.1527 282.907 31.6217 282.653 31.1416C282.405 30.6615 282.063 30.2759 281.627 29.985C281.198 29.694 280.707 29.5485 280.154 29.5485C279.608 29.5485 279.11 29.694 278.659 29.985C278.208 30.2687 277.848 30.6506 277.579 31.1307C277.31 31.6108 277.175 32.1454 277.175 32.7347C277.175 33.3239 277.31 33.8586 277.579 34.3387C277.848 34.8188 278.208 35.2007 278.659 35.4844C279.11 35.7681 279.608 35.9099 280.154 35.9099ZM288.485 38.1904V21.8231H291.148V38.1904H288.485ZM298.401 38.4741C297.397 38.4741 296.481 38.2159 295.652 37.6994C294.83 37.1829 294.171 36.4882 293.677 35.6153C293.189 34.7424 292.946 33.7785 292.946 32.7238C292.946 31.9308 293.087 31.1889 293.371 30.4978C293.655 29.7995 294.044 29.1884 294.539 28.6647C295.041 28.1336 295.623 27.719 296.284 27.4208C296.946 27.1225 297.652 26.9734 298.401 26.9734C299.252 26.9734 300.031 27.1552 300.736 27.519C301.449 27.8754 302.053 28.3664 302.548 28.992C303.042 29.6176 303.402 30.3305 303.628 31.1307C303.853 31.9308 303.904 32.7674 303.781 33.6403H295.804C295.906 34.0477 296.074 34.415 296.306 34.7424C296.539 35.0625 296.834 35.3207 297.19 35.5171C297.547 35.7062 297.95 35.8044 298.401 35.8117C298.867 35.819 299.289 35.7099 299.667 35.4844C300.053 35.2516 300.373 34.9388 300.627 34.546L303.344 35.1788C302.901 36.1463 302.239 36.9392 301.358 37.5576C300.478 38.1686 299.492 38.4741 298.401 38.4741ZM295.717 31.6435H301.086C301.006 31.2071 300.835 30.8142 300.573 30.4651C300.318 30.1086 300.002 29.8249 299.623 29.614C299.245 29.403 298.838 29.2975 298.401 29.2975C297.965 29.2975 297.561 29.403 297.19 29.614C296.819 29.8176 296.503 30.0977 296.241 30.4542C295.986 30.8033 295.812 31.1998 295.717 31.6435Z" fill="white"/>
<defs>
<clipPath id="clip0_68_3645">
<rect width="20.3682" height="20.8434" fill="white" transform="translate(59.8496 20.2832)"/>
</clipPath>
</defs>
</svg>
